<svg id="capterra-inc-vector-logo" xmlns="http://www.w3.org/2000/svg" width="108.595" height="24" viewBox="0 0 108.595 24">
  <path id="Path_24870" data-name="Path 24870" d="M20.4,275.891h16V269.9Z" transform="translate(-20.4 -267.077)" fill="#ff9d28"/>
  <path id="Path_24871" data-name="Path 24871" d="M108.8,257.123V278.3l7.565-24Z" transform="translate(-92.8 -254.3)" fill="#68c5ed"/>
  <path id="Path_24872" data-name="Path 24872" d="M81.445,303H75.4l6.045,15.167Z" transform="translate(-65.445 -294.186)" fill="#044d80"/>
  <path id="Path_24873" data-name="Path 24873" d="M20.4,303l11.511,3.891L30.355,303Z" transform="translate(-20.4 -294.186)" fill="#e54747"/>
  <g id="Group_83193" data-name="Group 83193" transform="translate(25.755 4.289)">
    <path id="Path_24874" data-name="Path 24874" d="M173.614,292.117a2.666,2.666,0,0,1-.434.326,4.626,4.626,0,0,1-.8.4,6.637,6.637,0,0,1-1.213.344,8.653,8.653,0,0,1-1.629.145,7.98,7.98,0,0,1-3.077-.561,5.574,5.574,0,0,1-2.136-1.593,6.466,6.466,0,0,1-1.231-2.407,10.882,10.882,0,0,1-.4-3.059,10.447,10.447,0,0,1,.434-3.077,6.854,6.854,0,0,1,1.285-2.443,5.757,5.757,0,0,1,2.136-1.611,7.381,7.381,0,0,1,3.022-.579,7.933,7.933,0,0,1,1.538.145,8.109,8.109,0,0,1,1.213.362,5.267,5.267,0,0,1,.851.434,4.015,4.015,0,0,1,.507.38,1.566,1.566,0,0,1,.344.416,1.092,1.092,0,0,1,.145.525,1.445,1.445,0,0,1-.326.869,6.134,6.134,0,0,1-.724.814q-.272-.271-.6-.543a4.4,4.4,0,0,0-.742-.489,4.259,4.259,0,0,0-.923-.344,4.506,4.506,0,0,0-1.158-.145,3.434,3.434,0,0,0-3.095,1.629,4.9,4.9,0,0,0-.652,1.647,9.4,9.4,0,0,0-.2,1.9,9.991,9.991,0,0,0,.2,1.973,4.564,4.564,0,0,0,.688,1.665,3.544,3.544,0,0,0,1.267,1.158,3.929,3.929,0,0,0,1.937.434,4.321,4.321,0,0,0,1.122-.145,4.7,4.7,0,0,0,.9-.38,5.684,5.684,0,0,0,.688-.452c.2-.163.362-.308.489-.416.09.109.181.235.308.38a3.539,3.539,0,0,1,.326.453c.109.163.181.326.271.489a1.09,1.09,0,0,1,.109.434,1.025,1.025,0,0,1-.109.489,2.961,2.961,0,0,1-.344.434Zm11.294-1.683a4.789,4.789,0,0,0,.507,2.534,3.358,3.358,0,0,1-.742.217,4.664,4.664,0,0,1-.724.072,2,2,0,0,1-1.195-.308,1.391,1.391,0,0,1-.525-.887,3.816,3.816,0,0,1-1.285.869,4.754,4.754,0,0,1-1.937.344,4.52,4.52,0,0,1-1.195-.163,3.066,3.066,0,0,1-1.086-.543,2.936,2.936,0,0,1-.8-1,3.5,3.5,0,0,1-.308-1.52,2.926,2.926,0,0,1,.543-1.828,3.848,3.848,0,0,1,1.357-1.1,6.426,6.426,0,0,1,1.756-.561,17.124,17.124,0,0,1,1.738-.2,5.128,5.128,0,0,1,.525-.018h.471v-.4a1.471,1.471,0,0,0-.452-1.213,2.421,2.421,0,0,0-1.466-.362,4.431,4.431,0,0,0-1.683.308,11.89,11.89,0,0,0-1.448.706,2.965,2.965,0,0,1-.489-.833,1.942,1.942,0,0,1-.181-.67.8.8,0,0,1,.344-.6,3.484,3.484,0,0,1,.941-.525,7.88,7.88,0,0,1,1.376-.38,9.241,9.241,0,0,1,1.629-.145,7.113,7.113,0,0,1,2.009.235,3.308,3.308,0,0,1,1.339.742,2.875,2.875,0,0,1,.742,1.267,6.514,6.514,0,0,1,.217,1.774l.018,4.181Zm-2.823-2.552h-.308a1.765,1.765,0,0,0-.308.018c-.362.036-.724.072-1.086.127a2.986,2.986,0,0,0-.959.308,2.139,2.139,0,0,0-.688.579,1.454,1.454,0,0,0-.271.9,1.594,1.594,0,0,0,.344,1.05A1.457,1.457,0,0,0,180,291.3a2.917,2.917,0,0,0,.8-.109,2.5,2.5,0,0,0,.67-.29,2,2,0,0,0,.452-.38.671.671,0,0,0,.163-.38v-2.262Zm8.307-4.344a4.247,4.247,0,0,1,1.1-.851,3.714,3.714,0,0,1,1.882-.434,4.47,4.47,0,0,1,1.557.271,3.485,3.485,0,0,1,1.3.887,4.4,4.4,0,0,1,.9,1.629,7.63,7.63,0,0,1,.344,2.5,8.457,8.457,0,0,1-.4,2.842,4.779,4.779,0,0,1-1.014,1.756,3.61,3.61,0,0,1-1.394.923,4.6,4.6,0,0,1-1.538.271,3.987,3.987,0,0,1-1.1-.145,3.64,3.64,0,0,1-.8-.326,2.451,2.451,0,0,1-.507-.344,1.818,1.818,0,0,1-.217-.235v5.43h-3V282.579a1.092,1.092,0,0,1,.271-.036c.09-.018.2-.018.308-.036.127,0,.253-.018.416-.018a2.9,2.9,0,0,1,1.249.235,1.172,1.172,0,0,1,.633.814Zm3.982,4.072a6.624,6.624,0,0,0-.109-1.231,3.242,3.242,0,0,0-.362-1,1.833,1.833,0,0,0-.688-.652,2.1,2.1,0,0,0-1.05-.235,1.917,1.917,0,0,0-1.285.344,1.082,1.082,0,0,0-.362.778v4.688a2.353,2.353,0,0,0,.634.416,2.188,2.188,0,0,0,1.05.235,1.784,1.784,0,0,0,1.647-.887A4.833,4.833,0,0,0,194.374,287.611Zm5.43,3.8a3.8,3.8,0,0,1-.2-.923,8.8,8.8,0,0,1-.036-.977V279.285a2,2,0,0,1,.326-.036c.109-.018.217-.018.326-.036.109,0,.235-.018.344-.018a3.117,3.117,0,0,1,.706.072,1.328,1.328,0,0,1,.633.271,1.389,1.389,0,0,1,.471.543,2.082,2.082,0,0,1,.181.887v1.575h3.1v2.226h-3.077v4.706c0,1.032.416,1.539,1.249,1.539a2.042,2.042,0,0,0,.579-.09q.272-.109.489-.217a1.983,1.983,0,0,0,.38-.253c.109-.091.181-.163.235-.2a6.88,6.88,0,0,1,.507.833,1.617,1.617,0,0,1,.181.67.812.812,0,0,1-.235.561,2.394,2.394,0,0,1-.652.507,3.484,3.484,0,0,1-1.013.38,5.861,5.861,0,0,1-1.3.145,3.8,3.8,0,0,1-2.136-.525,3.263,3.263,0,0,1-1.05-1.412Zm13.448-.29a3.282,3.282,0,0,0,.977-.127,4.743,4.743,0,0,0,.76-.29,3.565,3.565,0,0,0,.579-.38q.244-.217.434-.38a6.282,6.282,0,0,1,.561.851,1.808,1.808,0,0,1,.29.851,1.122,1.122,0,0,1-.543.887,4.3,4.3,0,0,1-1.321.615A7.192,7.192,0,0,1,213,293.4a7.834,7.834,0,0,1-2.045-.271,4.46,4.46,0,0,1-3.059-2.7,7.024,7.024,0,0,1-.489-2.805,5.992,5.992,0,0,1,.434-2.389,4.859,4.859,0,0,1,1.14-1.665,4.664,4.664,0,0,1,1.629-.977,5.808,5.808,0,0,1,1.846-.308,5.242,5.242,0,0,1,2.1.38,3.7,3.7,0,0,1,1.394,1.032,4.026,4.026,0,0,1,.778,1.484,6.23,6.23,0,0,1,.235,1.756v.308a2.8,2.8,0,0,1-.018.38c0,.127-.018.253-.018.38a1.138,1.138,0,0,1-.036.29h-6.5a3.42,3.42,0,0,0,.76,2.027,2.587,2.587,0,0,0,2.1.8Zm1.014-4.47a3.223,3.223,0,0,0-.416-1.719,1.6,1.6,0,0,0-1.466-.67,1.813,1.813,0,0,0-1.448.633,2.581,2.581,0,0,0-.543,1.756Zm7.927-3.059a5.048,5.048,0,0,1,.344-.434,2.2,2.2,0,0,1,.543-.434,4.208,4.208,0,0,1,.706-.326,2.436,2.436,0,0,1,.833-.127c.181,0,.362.018.561.036a2.385,2.385,0,0,1,.543.163,1.047,1.047,0,0,1,.416.326.809.809,0,0,1,.163.507,3.031,3.031,0,0,1-.235,1.1,8.679,8.679,0,0,1-.489,1.068,3.859,3.859,0,0,0-.742-.47,2.215,2.215,0,0,0-.887-.163,1.654,1.654,0,0,0-1.14.4,1.234,1.234,0,0,0-.471.959v7.131h-3V282.561a1.1,1.1,0,0,1,.271-.036c.091-.018.2-.018.308-.036.109,0,.253-.018.416-.018a2.626,2.626,0,0,1,1.231.272,1.319,1.319,0,0,1,.633.851Zm8.525,0a5.04,5.04,0,0,1,.344-.434,2.2,2.2,0,0,1,.543-.434,4.209,4.209,0,0,1,.706-.326,2.436,2.436,0,0,1,.833-.127c.181,0,.362.018.561.036a2.385,2.385,0,0,1,.543.163,1.047,1.047,0,0,1,.416.326.809.809,0,0,1,.163.507,3.031,3.031,0,0,1-.235,1.1,8.69,8.69,0,0,1-.489,1.068,3.855,3.855,0,0,0-.742-.47,2.215,2.215,0,0,0-.887-.163,1.654,1.654,0,0,0-1.14.4,1.234,1.234,0,0,0-.471.959v7.131h-3V282.561a1.1,1.1,0,0,1,.272-.036c.09-.018.2-.018.308-.036.109,0,.253-.018.416-.018a2.627,2.627,0,0,1,1.231.272,1.319,1.319,0,0,1,.633.851Zm14.316,6.842a4.789,4.789,0,0,0,.507,2.534,3.358,3.358,0,0,1-.742.217,4.666,4.666,0,0,1-.724.072,2,2,0,0,1-1.194-.308,1.391,1.391,0,0,1-.525-.887,3.816,3.816,0,0,1-1.285.869,4.754,4.754,0,0,1-1.937.344,4.521,4.521,0,0,1-1.195-.163,3.068,3.068,0,0,1-1.086-.543,2.936,2.936,0,0,1-.8-1,3.5,3.5,0,0,1-.308-1.52,2.926,2.926,0,0,1,.543-1.828,3.849,3.849,0,0,1,1.358-1.1,6.425,6.425,0,0,1,1.756-.561,17.127,17.127,0,0,1,1.738-.2,5.13,5.13,0,0,1,.525-.018h.471v-.4a1.471,1.471,0,0,0-.453-1.213,2.421,2.421,0,0,0-1.466-.362,4.431,4.431,0,0,0-1.683.308,11.883,11.883,0,0,0-1.448.706,2.963,2.963,0,0,1-.489-.833,1.94,1.94,0,0,1-.181-.67.8.8,0,0,1,.344-.6,3.484,3.484,0,0,1,.941-.525,7.881,7.881,0,0,1,1.376-.38,9.242,9.242,0,0,1,1.629-.145,7.112,7.112,0,0,1,2.009.235,3.308,3.308,0,0,1,1.339.742,2.876,2.876,0,0,1,.742,1.267,6.52,6.52,0,0,1,.217,1.774l.018,4.181Zm-2.823-2.552H241.9a1.765,1.765,0,0,0-.308.018c-.362.036-.724.072-1.086.127a2.986,2.986,0,0,0-.959.308,2.138,2.138,0,0,0-.688.579,1.454,1.454,0,0,0-.271.9,1.594,1.594,0,0,0,.344,1.05,1.457,1.457,0,0,0,1.195.434,2.917,2.917,0,0,0,.8-.109,2.5,2.5,0,0,0,.67-.29,2,2,0,0,0,.452-.38.67.67,0,0,0,.163-.38v-2.262Z" transform="translate(-162.7 -278)" fill="#044d80"/>
  </g>
</svg>
