<svg xmlns="http://www.w3.org/2000/svg" width="85.628" height="24" viewBox="0 0 85.628 24">
  <g id="G2-Crowd-Logo-logo" transform="translate(0 0)">
    <g id="Group_83192" data-name="Group 83192" transform="translate(0 0)">
      <path id="Path_24868" data-name="Path 24868" d="M414.787,5.148a2.213,2.213,0,0,0,.627-1.407,1.4,1.4,0,0,0-1.523-1.352,1.517,1.517,0,0,0-1.55,1.352L411.2,3.465A2.643,2.643,0,0,1,413.884,1.2a2.532,2.532,0,0,1,2.684,2.531,3.421,3.421,0,0,1-.933,2.218c-1.1,1.284-1.131,1.332-2.323,2.739H416.6V9.866H411.3v-.5Z" transform="translate(-397.107 -1.2)" fill="#425f6f"/>
      <path id="Path_24869" data-name="Path 24869" d="M14.211,17.03l.01-4.341h9.387A11.875,11.875,0,1,1,11.874,2.637v4.2A7.71,7.71,0,1,0,19.158,17.03m13.378-3c0-3.138.192-4.417.709-5.184A4.086,4.086,0,0,1,36.788,7.36,4.274,4.274,0,0,1,40.08,8.543a3.462,3.462,0,0,1,.689,2.468v.712H38.117c-.038-1.344-.075-1.585-.267-1.873a1.271,1.271,0,0,0-1.1-.529,1.243,1.243,0,0,0-1.137.577c-.267.536-.346,1.526-.346,4.118a16.687,16.687,0,0,0,.267,3.919,1.147,1.147,0,0,0,1.179.691c1.035,0,1.319-.529,1.408-2.506h2.641a6.1,6.1,0,0,1-.469,3c-.486.942-1.771,1.468-3.618,1.468-2.151,0-3.453-.8-3.885-2.334A21.844,21.844,0,0,1,32.536,14.032ZM42.29,7.563h4.1c1.97,0,2.326.076,3.015.632a3.151,3.151,0,0,1,.918,2.581,3.915,3.915,0,0,1-.613,2.372,2.412,2.412,0,0,1-1.665.873c1.713.21,2.306,1.017,2.326,3.18,0,.347.038,1.055.075,1.939a4.466,4.466,0,0,0,.209,1.268H47.836a12.371,12.371,0,0,1-.116-2.43c0-1.547-.116-2.313-.421-2.661-.209-.23-.439-.289-1.12-.289H44.9v5.386H42.283Zm3.683,5.569c1.2,0,1.627-.509,1.627-1.853a2.121,2.121,0,0,0-.507-1.564c-.23-.192-.4-.23-1.052-.23H44.883v3.647Zm6.019.835c0-3,.134-4.032.651-4.936.613-1.1,1.884-1.671,3.693-1.671,2,0,3.357.749,3.885,2.159a15.126,15.126,0,0,1,.384,4.513c0,2.7-.134,3.974-.507,4.706-.613,1.22-1.922,1.873-3.741,1.873s-3.073-.557-3.7-1.671C52.136,18.047,51.992,16.982,51.992,13.967ZM56.3,18.632a1.311,1.311,0,0,0,1.425-1.141,32.223,32.223,0,0,0,.171-3.956,12.212,12.212,0,0,0-.288-3.523,1.329,1.329,0,0,0-1.3-.691,1.28,1.28,0,0,0-1.377.883,22.084,22.084,0,0,0-.209,3.919,23.535,23.535,0,0,0,.154,3.351A1.29,1.29,0,0,0,56.3,18.632ZM61.465,7.563h2.669L65,12.248a47.307,47.307,0,0,1,.528,6.2c.534-3.936.709-5.032.956-6.2L67.5,7.563H70.5l.956,4.685a37.011,37.011,0,0,1,.671,6.2,60.62,60.62,0,0,1,.764-6.2l.833-4.685h2.343L73.48,20.419h-2.9l-1.209-5.974a42.732,42.732,0,0,1-.528-4.781c-.384,2.891-.4,3.3-.709,4.781l-1.244,5.971H63.925Zm15.742,0h3.58c2.076,0,2.71.117,3.357.577.812.595,1.216,1.633,1.387,3.668.058.8.1,1.815.1,2.719,0,2.313-.161,3.448-.534,4.2a3.516,3.516,0,0,1-3.357,1.7H77.221Zm3.82,10.828c.918,0,1.425-.21,1.607-.691a10.717,10.717,0,0,0,.25-3.351,14.137,14.137,0,0,0-.288-3.936,1.424,1.424,0,0,0-1.5-.835H79.9v8.813ZM28.651,2.5H27.8V26.225h.853Z" transform="translate(0 -2.456)" fill="#425f6f"/>
    </g>
  </g>
</svg>
