<svg id="sourceforge-vector-logo" xmlns="http://www.w3.org/2000/svg" width="108.041" height="16.997" viewBox="0 0 108.041 16.997">
  <path id="Path_24875" data-name="Path 24875" d="M-115.468,241.121c0-3.169-1.116-4.591-1.729-5.149a.172.172,0,0,0-.288.144c.108,1.783-2.143,2.233-2.143,5.023h0v.018a3,3,0,0,0,2.881,3.1,3,3,0,0,0,2.881-3.1v-.018h0a4.888,4.888,0,0,0-.594-2.125c-.072-.108-.234-.072-.216.036C-114.117,241.5-115.468,242.975-115.468,241.121Zm-3.439,6.68a.289.289,0,0,1-.2-.09l-7.364-7.364a.283.283,0,0,1,0-.4l7.778-7.778a.32.32,0,0,1,.18-.072h2.233a.293.293,0,0,1,.252.162.265.265,0,0,1-.072.306l-7.292,7.31a.369.369,0,0,0,0,.522l5.78,5.8a.283.283,0,0,1,0,.4l-1.116,1.116A.222.222,0,0,1-118.907,247.8Zm1.476,1.278a.292.292,0,0,1-.252-.162.265.265,0,0,1,.072-.306l7.31-7.31a.366.366,0,0,0,.108-.27.366.366,0,0,0-.108-.27l-5.8-5.8a.283.283,0,0,1,0-.4l1.116-1.116a.258.258,0,0,1,.2-.09c.09,0,.126.054.18.108l7.346,7.364a.258.258,0,0,1,.09.2.258.258,0,0,1-.09.2l-7.778,7.778a.258.258,0,0,1-.2.09l-2.2-.018Z" transform="translate(126.55 -232.1)" fill="#f60"/>
  <path id="Path_24876" data-name="Path 24876" d="M4.141,255.86a.173.173,0,0,1-.162.108c-.054,0-.108-.036-.2-.108s-.2-.162-.324-.252a1.763,1.763,0,0,0-.522-.252,2.111,2.111,0,0,0-.792-.108,2.959,2.959,0,0,0-.828.126,1.94,1.94,0,0,0-.594.36,1.3,1.3,0,0,0-.36.522,1.517,1.517,0,0,0-.126.63,1.418,1.418,0,0,0,.18.72,1.634,1.634,0,0,0,.5.486,2.529,2.529,0,0,0,.7.324c.27.108.522.18.792.27a7.157,7.157,0,0,1,.792.306,3.748,3.748,0,0,1,.7.4,1.809,1.809,0,0,1,.5.594,2.072,2.072,0,0,1,.18.882,3.038,3.038,0,0,1-.18,1.008,2.487,2.487,0,0,1-.522.828,2.475,2.475,0,0,1-.864.558,3.288,3.288,0,0,1-1.152.2,3.29,3.29,0,0,1-1.458-.306,3.682,3.682,0,0,1-1.08-.828l.108-.27a.19.19,0,0,1,.162-.09.156.156,0,0,1,.126.072c.054.054.126.108.2.18.09.072.18.144.306.234a2.875,2.875,0,0,0,.4.234,2.709,2.709,0,0,0,.5.18,2.514,2.514,0,0,0,.666.072,2.891,2.891,0,0,0,.918-.144,2.311,2.311,0,0,0,.684-.414,1.964,1.964,0,0,0,.432-.63,1.909,1.909,0,0,0,.144-.774,1.49,1.49,0,0,0-.18-.738,1.5,1.5,0,0,0-.5-.5,2.526,2.526,0,0,0-.7-.324c-.27-.09-.522-.18-.792-.27s-.522-.18-.792-.288a2.956,2.956,0,0,1-.7-.4,2.136,2.136,0,0,1-.5-.612,2.25,2.25,0,0,1-.18-.918,2.189,2.189,0,0,1,.162-.828,2.124,2.124,0,0,1,.486-.72,3.029,3.029,0,0,1,.774-.5,3.2,3.2,0,0,1,1.062-.18,3.2,3.2,0,0,1,1.206.216,3.065,3.065,0,0,1,.972.648ZM1.783,263.6A3.539,3.539,0,0,1,.27,263.3a3.9,3.9,0,0,1-1.116-.846L-.9,262.4l.216-.324a.33.33,0,0,1,.252-.126.277.277,0,0,1,.2.108c.054.054.126.108.216.18s.18.144.288.234a1.892,1.892,0,0,0,.378.216,1.844,1.844,0,0,0,.5.162,2.3,2.3,0,0,0,.648.072,2.666,2.666,0,0,0,.882-.144,2.313,2.313,0,0,0,.648-.4,1.759,1.759,0,0,0,.522-1.332,1.4,1.4,0,0,0-.162-.7,1.453,1.453,0,0,0-.468-.468,2.514,2.514,0,0,0-.666-.306c-.252-.09-.5-.18-.792-.27a8.1,8.1,0,0,1-.792-.288,3.134,3.134,0,0,1-.72-.414,1.8,1.8,0,0,1-.5-.648,2.2,2.2,0,0,1-.2-.954,2.469,2.469,0,0,1,.162-.882,2.076,2.076,0,0,1,.5-.738,2.47,2.47,0,0,1,.81-.5,2.985,2.985,0,0,1,1.1-.2,3.325,3.325,0,0,1,1.242.216,3.039,3.039,0,0,1,1.008.684l.054.054-.18.342c-.108.18-.288.234-.5.018a3.1,3.1,0,0,0-.324-.234,3.264,3.264,0,0,0-.5-.252,2.242,2.242,0,0,0-.756-.108,2.608,2.608,0,0,0-.792.126,1.719,1.719,0,0,0-.558.342,1.393,1.393,0,0,0-.342.5,1.729,1.729,0,0,0-.108.594,1.216,1.216,0,0,0,.162.666,1.652,1.652,0,0,0,.468.468,3.272,3.272,0,0,0,.666.324c.252.09.5.18.792.27a5.994,5.994,0,0,1,.792.306,3.133,3.133,0,0,1,.72.414,1.739,1.739,0,0,1,.5.63,2.035,2.035,0,0,1,.2.918,3.084,3.084,0,0,1-.2,1.062,2.46,2.46,0,0,1-.558.864,2.577,2.577,0,0,1-.9.576A7.876,7.876,0,0,1,1.783,263.6ZM-.612,262.36a3.312,3.312,0,0,0,.99.738A3.185,3.185,0,0,0,1.8,263.4a3.085,3.085,0,0,0,1.116-.2,2.6,2.6,0,0,0,.828-.522,2.289,2.289,0,0,0,.5-.792,2.91,2.91,0,0,0,.18-.972,2.359,2.359,0,0,0-.162-.846,1.556,1.556,0,0,0-.468-.558,3.427,3.427,0,0,0-.666-.4c-.252-.108-.5-.2-.774-.306-.27-.09-.522-.18-.792-.27a5.372,5.372,0,0,1-.72-.342,1.5,1.5,0,0,1-.5-.5,1.451,1.451,0,0,1-.2-.774,2.191,2.191,0,0,1,.126-.684,1.34,1.34,0,0,1,.378-.558,1.48,1.48,0,0,1,.63-.378,2.186,2.186,0,0,1,.864-.126,2.8,2.8,0,0,1,.828.108,2.151,2.151,0,0,1,.54.27,2.053,2.053,0,0,1,.342.27c.108.09.126.09.126.09a.067.067,0,0,0,.072-.054l.108-.216a2.766,2.766,0,0,0-.882-.576,3.288,3.288,0,0,0-1.152-.2,3.062,3.062,0,0,0-1.026.18,2.164,2.164,0,0,0-.738.468,2.306,2.306,0,0,0-.468.684,1.939,1.939,0,0,0-.144.792,2.135,2.135,0,0,0,.18.882,1.475,1.475,0,0,0,.468.576,2.67,2.67,0,0,0,.666.378c.252.108.5.2.774.288s.522.162.792.27a3.815,3.815,0,0,1,.72.342,1.277,1.277,0,0,1,.5.522,1.587,1.587,0,0,1,.2.81,2.5,2.5,0,0,1-.144.828,1.746,1.746,0,0,1-.45.666,2.584,2.584,0,0,1-.72.45,2.621,2.621,0,0,1-.936.162,2.878,2.878,0,0,1-.7-.09,2.932,2.932,0,0,1-.522-.18,1.59,1.59,0,0,1-.414-.252c-.108-.09-.216-.162-.306-.234a2.159,2.159,0,0,1-.2-.18c-.054-.054-.09-.054-.09-.054a.1.1,0,0,0-.09.054Zm14.6-3.259a5.171,5.171,0,0,1-.306,1.8,3.987,3.987,0,0,1-.846,1.386,3.9,3.9,0,0,1-1.3.9,4.2,4.2,0,0,1-1.674.306,4.518,4.518,0,0,1-1.656-.306,3.82,3.82,0,0,1-1.3-.9,3.987,3.987,0,0,1-.846-1.386,5.449,5.449,0,0,1,0-3.6,3.988,3.988,0,0,1,.846-1.386,3.9,3.9,0,0,1,1.3-.9,4.174,4.174,0,0,1,1.656-.306,4.543,4.543,0,0,1,1.674.306,3.82,3.82,0,0,1,1.3.9,3.988,3.988,0,0,1,.846,1.386A5.172,5.172,0,0,1,13.99,259.1Zm-.648,0a5.1,5.1,0,0,0-.252-1.621,3.187,3.187,0,0,0-.7-1.206,3.151,3.151,0,0,0-1.1-.756,3.785,3.785,0,0,0-2.809,0,3.151,3.151,0,0,0-1.1.756,3.469,3.469,0,0,0-.72,1.206A4.572,4.572,0,0,0,6.41,259.1a5.1,5.1,0,0,0,.252,1.62,3,3,0,0,0,.72,1.206,3.153,3.153,0,0,0,1.1.756,3.615,3.615,0,0,0,1.4.27,3.551,3.551,0,0,0,1.4-.27,2.93,2.93,0,0,0,1.1-.756,3.44,3.44,0,0,0,.7-1.206A4.573,4.573,0,0,0,13.342,259.1ZM9.9,263.585a4.64,4.64,0,0,1-1.693-.306,3.764,3.764,0,0,1-1.332-.918,4.186,4.186,0,0,1-.864-1.422,5.663,5.663,0,0,1,0-3.673,4.367,4.367,0,0,1,.864-1.422,3.678,3.678,0,0,1,1.332-.918A4.3,4.3,0,0,1,9.9,254.6a4.74,4.74,0,0,1,1.711.306,3.764,3.764,0,0,1,1.332.918,4.251,4.251,0,0,1,.864,1.422,5.663,5.663,0,0,1,0,3.673,4.368,4.368,0,0,1-.864,1.423,3.68,3.68,0,0,1-1.332.918A4.452,4.452,0,0,1,9.9,263.585Zm0-8.769a4.4,4.4,0,0,0-1.62.306,3.659,3.659,0,0,0-1.26.864,3.758,3.758,0,0,0-.81,1.35,5.239,5.239,0,0,0,0,3.529,4.217,4.217,0,0,0,.81,1.35,3.659,3.659,0,0,0,1.26.864,4.442,4.442,0,0,0,3.241,0,3.659,3.659,0,0,0,1.26-.864,3.838,3.838,0,0,0,.81-1.332,5.239,5.239,0,0,0,0-3.529,4.218,4.218,0,0,0-.81-1.35,3.66,3.66,0,0,0-1.26-.864A3.675,3.675,0,0,0,9.9,254.816Zm9,8.138a2.806,2.806,0,0,0,1.116-.216,2.5,2.5,0,0,0,.828-.594,2.334,2.334,0,0,0,.5-.9,3.718,3.718,0,0,0,.18-1.116v-5.312h.612v5.312a3.98,3.98,0,0,1-.234,1.332,3.148,3.148,0,0,1-.648,1.08,3.2,3.2,0,0,1-1.026.72,3.612,3.612,0,0,1-1.35.27,3.2,3.2,0,0,1-2.377-.99,2.987,2.987,0,0,1-.648-1.08,4.063,4.063,0,0,1-.234-1.332v-5.312h.63v5.294a3.717,3.717,0,0,0,.18,1.116,2.917,2.917,0,0,0,.5.9,2.494,2.494,0,0,0,.828.594A2.611,2.611,0,0,0,18.906,262.954Zm0,.648a3.463,3.463,0,0,1-1.386-.27,3.214,3.214,0,0,1-1.062-.738,3.474,3.474,0,0,1-.666-1.116,4.169,4.169,0,0,1-.234-1.35v-5.4h.828v5.4a4.5,4.5,0,0,0,.162,1.1,2.431,2.431,0,0,0,.5.864,2.3,2.3,0,0,0,.792.576,2.829,2.829,0,0,0,2.125.018,2.1,2.1,0,0,0,.792-.576,2.732,2.732,0,0,0,.5-.864,3.517,3.517,0,0,0,.162-1.1v-5.42h.828v5.4a4.086,4.086,0,0,1-.234,1.35,3.349,3.349,0,0,1-.666,1.116,3.214,3.214,0,0,1-1.062.738A3.463,3.463,0,0,1,18.906,263.6Zm-3.169-8.7v5.2a3.766,3.766,0,0,0,.216,1.3,2.953,2.953,0,0,0,.63,1.044,2.828,2.828,0,0,0,.99.7,3.381,3.381,0,0,0,1.332.252,3.581,3.581,0,0,0,1.332-.252,2.762,2.762,0,0,0,.99-.7,3.241,3.241,0,0,0,.63-1.044,3.766,3.766,0,0,0,.216-1.3v-5.2h-.414v5.2a3.96,3.96,0,0,1-.18,1.152,2.417,2.417,0,0,1-.54.936,2.336,2.336,0,0,1-.864.63,2.9,2.9,0,0,1-1.134.234,2.77,2.77,0,0,1-1.134-.234,2.492,2.492,0,0,1-.864-.63,2.518,2.518,0,0,1-.522-.936,3.865,3.865,0,0,1-.18-1.152v-5.2Zm9.975,4.141h.5a4.441,4.441,0,0,0,1.026-.126,2.144,2.144,0,0,0,.756-.4,1.789,1.789,0,0,0,.486-.612,1.915,1.915,0,0,0,.162-.81,1.557,1.557,0,0,0-.594-1.35,2.81,2.81,0,0,0-1.747-.45H24.74v8.12h-.63v-8.588h2.179a3.578,3.578,0,0,1,2.215.576,1.951,1.951,0,0,1,.72,1.692,2.427,2.427,0,0,1-.162.9,2.178,2.178,0,0,1-.5.72,2.775,2.775,0,0,1-.756.5,4.364,4.364,0,0,1-1.008.27,1.183,1.183,0,0,1,.27.252l2.953,3.709h-.54a.431.431,0,0,1-.162-.036.253.253,0,0,1-.126-.108l-2.737-3.547a.637.637,0,0,0-.216-.18,4.193,4.193,0,0,0-.72-.054C25.514,259.1,25.568,259.047,25.712,259.047Zm4.537,4.447h-.738a.427.427,0,0,1-.216-.054.621.621,0,0,1-.162-.144l-2.755-3.475a.488.488,0,0,0-.18-.162,5.237,5.237,0,0,0-.684-.054h-.108v-.432c0-.144.036-.234.306-.234h.522a4.131,4.131,0,0,0,.99-.126,2.107,2.107,0,0,0,.72-.378,1.567,1.567,0,0,0,.45-.576,1.771,1.771,0,0,0,.144-.756,1.486,1.486,0,0,0-.558-1.278,2.757,2.757,0,0,0-1.693-.432H24.812v8.084h-.828v-8.769h2.3a3.726,3.726,0,0,1,2.287.594,2.127,2.127,0,0,1,.774,1.765,2.273,2.273,0,0,1-.684,1.674,3.025,3.025,0,0,1-.792.522,3.552,3.552,0,0,1-.81.234l.108.108ZM25.6,259.407a2.433,2.433,0,0,1,.666.072.755.755,0,0,1,.27.216l2.755,3.475a.305.305,0,0,0,.108.108.256.256,0,0,0,.108.036h.324l-2.845-3.547a.659.659,0,0,0-.234-.216l-.252-.144.306-.036a2.665,2.665,0,0,0,.972-.252,2.629,2.629,0,0,0,.738-.486,2.014,2.014,0,0,0,.468-.684,2.24,2.24,0,0,0,.162-.864,1.881,1.881,0,0,0-.7-1.6,3.509,3.509,0,0,0-2.143-.54H24.217V263.3h.414v-8.1h1.674a2.9,2.9,0,0,1,1.8.468,1.651,1.651,0,0,1,.648,1.44,2.527,2.527,0,0,1-.162.846,1.76,1.76,0,0,1-.5.648,2.541,2.541,0,0,1-.792.414,3.23,3.23,0,0,1-1.062.144h-.5C25.676,259.155,25.622,259.155,25.6,259.407Zm11.7,2.539a.128.128,0,0,1,.108.054l.252.27a3.852,3.852,0,0,1-.576.5,3.287,3.287,0,0,1-.7.378,5.316,5.316,0,0,1-.81.252,4.246,4.246,0,0,1-.972.09,4.421,4.421,0,0,1-1.638-.306,3.583,3.583,0,0,1-1.278-.9,4.239,4.239,0,0,1-.828-1.386,5.4,5.4,0,0,1,0-3.583,4.2,4.2,0,0,1,.864-1.386,3.872,3.872,0,0,1,1.332-.9,5.024,5.024,0,0,1,2.575-.234,3.79,3.79,0,0,1,.72.2,3.456,3.456,0,0,1,.63.324,4.528,4.528,0,0,1,.576.45l-.18.27a.164.164,0,0,1-.144.072.156.156,0,0,1-.126-.072.746.746,0,0,0-.216-.162c-.09-.072-.2-.126-.306-.2a1.3,1.3,0,0,0-.45-.2,3.463,3.463,0,0,0-.594-.162,3.27,3.27,0,0,0-.756-.072,3.731,3.731,0,0,0-1.44.27,3.038,3.038,0,0,0-1.116.774,3.681,3.681,0,0,0-.738,1.206,4.464,4.464,0,0,0-.27,1.6,4.566,4.566,0,0,0,.27,1.621,3.47,3.47,0,0,0,.72,1.206,3.329,3.329,0,0,0,1.1.756,3.414,3.414,0,0,0,1.35.27,3.946,3.946,0,0,0,.828-.072,3.249,3.249,0,0,0,.666-.18,2.77,2.77,0,0,0,.558-.306,2.676,2.676,0,0,0,.5-.414c.018-.018.036-.036.054-.036C37.253,261.964,37.289,261.946,37.307,261.946ZM34.571,263.6A4.545,4.545,0,0,1,32.9,263.3a3.7,3.7,0,0,1-1.314-.918,4.151,4.151,0,0,1-.846-1.422,5.381,5.381,0,0,1-.306-1.836,5.276,5.276,0,0,1,.306-1.819,4.412,4.412,0,0,1,.882-1.422,3.833,3.833,0,0,1,1.35-.918,5.043,5.043,0,0,1,2.629-.252,4.417,4.417,0,0,1,.738.2,3.63,3.63,0,0,1,.648.324,4.5,4.5,0,0,1,.594.468l.072.072-.234.342a.265.265,0,0,1-.234.108c-.072,0-.108-.036-.2-.09a.648.648,0,0,0-.216-.144,2.263,2.263,0,0,0-.306-.2,3.327,3.327,0,0,0-.432-.2,2.452,2.452,0,0,0-.576-.144,4.46,4.46,0,0,0-.738-.072,3.615,3.615,0,0,0-1.4.27,3.571,3.571,0,0,0-1.1.738,3.474,3.474,0,0,0-.72,1.17,4.733,4.733,0,0,0-.27,1.549,4.8,4.8,0,0,0,.252,1.584,3.037,3.037,0,0,0,.7,1.17,3.087,3.087,0,0,0,1.062.72,3.512,3.512,0,0,0,1.332.252,3.662,3.662,0,0,0,.81-.072,3.415,3.415,0,0,0,.648-.18,3.805,3.805,0,0,0,.54-.288c.162-.108.324-.252.5-.4a.241.241,0,0,1,.09-.054.225.225,0,0,1,.288.054l.306.324-.072.072a4.116,4.116,0,0,1-.594.522,3.086,3.086,0,0,1-.72.4,3.6,3.6,0,0,1-.846.252A2.535,2.535,0,0,1,34.571,263.6Zm.18-8.787a4.545,4.545,0,0,0-1.674.306,3.608,3.608,0,0,0-1.3.882,4,4,0,0,0-.846,1.35,4.939,4.939,0,0,0-.306,1.747,5.041,5.041,0,0,0,.306,1.765,4.217,4.217,0,0,0,.81,1.35,3.586,3.586,0,0,0,1.242.864,4.141,4.141,0,0,0,1.584.306,5.2,5.2,0,0,0,.954-.09,2.722,2.722,0,0,0,.792-.252,3.383,3.383,0,0,0,.666-.378,5.8,5.8,0,0,0,.5-.432l-.18-.2a.034.034,0,0,0-.054,0c-.018,0-.036.018-.054.036a3.768,3.768,0,0,1-.522.414,3.54,3.54,0,0,1-.576.306,2.95,2.95,0,0,1-.684.18,5.7,5.7,0,0,1-.846.072,3.979,3.979,0,0,1-1.4-.27A3.27,3.27,0,0,1,32.05,262a3.673,3.673,0,0,1-.738-1.242,5.16,5.16,0,0,1,0-3.295,3.436,3.436,0,0,1,.756-1.242,3.383,3.383,0,0,1,1.152-.792,3.853,3.853,0,0,1,1.476-.288,3.434,3.434,0,0,1,.774.072c.234.054.432.108.612.162a2.444,2.444,0,0,1,.774.432c.09.072.162.108.216.162s.09.054.09.054c.054,0,.072-.018.072-.036l.126-.2a3.351,3.351,0,0,0-.5-.378,2.781,2.781,0,0,0-.612-.306,4.215,4.215,0,0,0-.72-.2A3.047,3.047,0,0,0,34.751,254.816Zm9.615,0v.5H39.846V258.8h3.763v.5H39.846v3.565h4.519v.5h-5.15V254.8h5.15Zm.108,8.678H39.126v-8.786h5.348v.72H39.954v3.259h3.763v.72H39.954v3.367h4.519Zm-5.15-.2h4.951v-.306H39.756v-3.781h3.763V258.9H39.756V255.23h4.519v-.306H39.324Z" transform="translate(23.524 -250.549)"/>
  <path id="Path_24877" data-name="Path 24877" d="M268.028,254.79V256.1h-3.889V258.7h3.277v1.314h-3.277v3.565H262.5v-8.769l5.528-.018Zm9.525,4.393a5.145,5.145,0,0,1-.306,1.783,3.954,3.954,0,0,1-.918,1.422,4.006,4.006,0,0,1-1.4.936,4.546,4.546,0,0,1-1.819.324,4.881,4.881,0,0,1-1.819-.324,4.157,4.157,0,0,1-2.323-2.359,4.756,4.756,0,0,1-.306-1.783,5.143,5.143,0,0,1,.306-1.783,3.953,3.953,0,0,1,.918-1.422,4.176,4.176,0,0,1,1.4-.936,5.131,5.131,0,0,1,3.637.018,4.157,4.157,0,0,1,2.323,2.359A5.4,5.4,0,0,1,277.552,259.183Zm-1.674,0a4.083,4.083,0,0,0-.2-1.3,2.676,2.676,0,0,0-.54-.972,2.224,2.224,0,0,0-.882-.612,3.181,3.181,0,0,0-2.3,0,2.511,2.511,0,0,0-.882.612,2.6,2.6,0,0,0-.558.972,4.342,4.342,0,0,0,0,2.593,2.465,2.465,0,0,0,.558.972,2.584,2.584,0,0,0,.882.612,3.181,3.181,0,0,0,2.3,0,2.512,2.512,0,0,0,.882-.612,2.835,2.835,0,0,0,.54-.972A4.167,4.167,0,0,0,275.878,259.183Zm5.077-.2h.378a2.76,2.76,0,0,0,.81-.108,1.809,1.809,0,0,0,.558-.306,1.1,1.1,0,0,0,.324-.486,1.683,1.683,0,0,0,.108-.612,1.207,1.207,0,0,0-.45-1.026,2.138,2.138,0,0,0-1.332-.36h-1.062v7.508h-1.639v-8.769h2.683a6.153,6.153,0,0,1,1.53.18,2.973,2.973,0,0,1,1.044.5,1.922,1.922,0,0,1,.594.792,2.673,2.673,0,0,1,.2,1.026,3.2,3.2,0,0,1-.126.846,2.126,2.126,0,0,1-.378.72,2.292,2.292,0,0,1-.612.558,2.492,2.492,0,0,1-.828.378,1.541,1.541,0,0,1,.522.5l2.2,3.241H284a.709.709,0,0,1-.36-.09.568.568,0,0,1-.252-.252l-1.837-2.809c-.054-.072-.144-.216-.252-.234h-.576v-1.062A.259.259,0,0,1,280.955,258.985Zm9.345,3.385a3.669,3.669,0,0,0,.954-.108,4.008,4.008,0,0,0,.774-.288v-1.981h-1.1a.39.39,0,0,1-.252-.09.282.282,0,0,1-.108-.216v-.918h2.917v3.943a3.43,3.43,0,0,1-.7.414c-.252.108-.5.216-.774.306a4.507,4.507,0,0,1-.882.162,8.762,8.762,0,0,1-1.008.054,4.663,4.663,0,0,1-1.764-.324,3.89,3.89,0,0,1-1.386-.918,4.206,4.206,0,0,1-.918-1.422,4.853,4.853,0,0,1-.324-1.8,5.351,5.351,0,0,1,.306-1.819,3.954,3.954,0,0,1,.918-1.422,3.874,3.874,0,0,1,1.441-.918,5.722,5.722,0,0,1,3.745-.018,4.918,4.918,0,0,1,1.332.828l-.486.738a.461.461,0,0,1-.36.234.529.529,0,0,1-.306-.108c-.126-.09-.27-.144-.4-.234a1.709,1.709,0,0,0-.45-.2,2.383,2.383,0,0,0-.54-.126,4.2,4.2,0,0,0-.72-.054,3.014,3.014,0,0,0-1.17.216,2.4,2.4,0,0,0-.9.63,2.6,2.6,0,0,0-.558.972,4.051,4.051,0,0,0-.2,1.278,3.934,3.934,0,0,0,.216,1.35,2.85,2.85,0,0,0,.594.99,2.536,2.536,0,0,0,.918.63A3.172,3.172,0,0,0,290.3,262.37Zm8.985-2.323H296.62v2.215h3.871v1.314h-5.528v-8.769h5.528v1.314H296.6v2.7h3.061v.954A.337.337,0,0,1,299.285,260.048Z" transform="translate(-192.45 -250.631)"/>
</svg>
